<?xml version="1.0" encoding="UTF-8"?>
<svg width="21px" height="20px" viewBox="0 0 21 20" version="1.1" xmlns="http://www.w3.org/2000/svg" xmlns:xlink="http://www.w3.org/1999/xlink">
    <title>PoopSVGWhite</title>
    <g id="Page-1" stroke="none" stroke-width="1" fill="none" fill-rule="evenodd">
        <g id="48x20" transform="translate(-14.000000, 0.000000)" fill="#000000" fill-rule="nonzero">
            <g id="PoopSVGWhite" transform="translate(14.000000, 0.000000)">
                <path d="M18.3417888,13.7590498 C18.5039925,13.206139 18.8025021,11.8348831 18.2071248,10.6897422 C17.8531326,10.0087415 17.2478838,9.52768432 16.4056372,9.25705038 C16.4168708,9.13114969 16.4237234,8.96305612 16.4271441,8.73447822 L16.427424,8.71351862 C16.4352295,8.38212669 16.4241339,7.94984255 16.2685042,7.54481213 C16.0941103,7.09108948 15.7517609,6.69825543 15.2783089,6.40885114 C15.0683675,6.28101644 14.8438197,6.17888355 14.6094983,6.10465072 C14.5604516,6.08903363 14.4279769,6.0627315 13.9952077,5.98293572 C13.8424575,5.19932005 13.6545052,4.39886205 13.3505101,3.74306266 C12.8755431,2.71492714 12.141383,1.82797199 11.2200996,1.16926636 C10.9618673,0.985350462 8.67226401,-0.602902695 7.82234818,0.249960541 C7.63589474,0.437166534 7.56917913,0.73170811 7.63932167,1.05809958 C7.65754471,1.1433063 7.67754652,1.22735619 7.69726845,1.31037365 C7.80850986,1.77862497 7.89645936,2.14850919 7.6352106,2.52298337 C7.56835754,2.61881293 7.4939727,2.70587305 7.41506071,2.79800203 C7.22175964,3.02404238 7.00270997,3.2802285 6.93297667,3.66689284 C6.86489215,4.04356249 6.90557991,4.45523531 6.95667906,4.81710263 C6.46787861,5.02225801 5.30985714,5.61208749 4.74721979,6.77757231 C4.37500265,7.54837588 4.33513586,8.41898326 4.62748819,9.36938642 C4.20115608,9.51644574 3.42480474,9.88037792 2.90915485,10.6869994 C2.41666067,11.4575977 2.28610097,12.431156 2.52022663,13.5839717 C2.37870885,13.6540403 2.17842331,13.7656237 1.88511941,13.9395387 C1.64674585,14.0809197 1.12630076,14.3978576 1.03958271,14.4752588 C0.290718723,15.1340118 -0.0903690499,16.1162201 0.0182342402,17.1076625 C0.12683753,18.099105 0.711520397,18.975522 1.58523531,19.4565367 C3.04327209,20.2592585 4.85434951,19.8903321 6.4521247,19.5649669 C6.87790327,19.4782488 7.27998567,19.3963944 7.65973459,19.3391318 C7.9797567,19.2911859 8.35854719,19.3713984 8.72487387,19.4491417 C8.88954051,19.484008 9.0596865,19.5201743 9.22298486,19.5440757 C10.632243,19.7520958 12.0520479,19.8810055 13.4757266,19.9301989 C13.7024511,19.9376623 13.9317816,19.9480052 14.1626171,19.9584913 C14.6193624,19.9791088 15.0817177,20 15.5444897,20 C16.3379632,20 17.1321209,19.9384895 17.8984775,19.7086801 C19.1938995,19.3202308 20.6279658,18.2446795 20.7157784,16.801228 C20.7892055,15.5951923 19.9907999,14.5725251 18.3417888,13.7590498 Z M3.37822777,10.9951056 C3.97209991,10.0601143 5.03217095,9.83482654 5.04203502,9.83276789 C5.1226976,9.8168177 5.1923045,9.76628893 5.23245889,9.69453598 C5.27261328,9.62278304 5.2792736,9.53702801 5.25067952,9.45993565 C4.91229692,8.54809942 4.91229692,7.72893326 5.25081635,7.0251258 C5.82157135,5.83827711 7.18604123,5.32481026 7.33950661,5.27021576 C7.46714148,5.29048917 7.59626771,5.29988531 7.72549302,5.29830288 C8.31402326,5.29830288 9.22189085,5.15370025 9.94152686,4.75901901 C9.98555846,4.73498013 10.0134011,4.68925735 10.0145483,4.63910425 C10.0156954,4.58895113 9.98997254,4.54200312 9.94708613,4.5159761 C9.90419967,4.48994909 9.8506789,4.48880549 9.80671989,4.51297685 C9.00211351,4.95434141 8.00469117,5.04308079 7.5466149,5.01618159 C7.54812617,4.99616158 7.54747138,4.97603692 7.54466199,4.9561575 C7.48588801,4.56969218 7.41917178,4.1315804 7.48506704,3.7664914 C7.52794468,3.52941771 7.66630856,3.36763068 7.84153026,3.16275518 C7.93149114,3.06084767 8.01625988,2.95447184 8.09551406,2.84403232 C8.50047608,2.26323972 8.36375351,1.68806952 8.24319534,1.18064176 C8.22429437,1.10152391 8.20525036,1.02151667 8.18785451,0.940414804 C8.15976739,0.809314634 8.17237425,0.693688501 8.21990965,0.645947863 C8.553354,0.311265839 10.0024901,0.991171884 10.8945982,1.62642215 C11.7365586,2.22855398 12.4074615,3.03928985 12.841441,3.97903551 C13.1218146,4.58369221 13.2990881,5.34575121 13.4449346,6.09441969 C12.9094571,6.5854716 11.1457478,8.0623403 8.53034196,8.85044643 L8.53541083,8.86733228 C8.16349907,8.48801936 7.70044101,8.25992658 7.19710566,8.25992658 C5.9788051,8.25992658 4.98764577,9.58145162 4.98764577,11.205871 C4.98764577,12.2106136 5.36739406,13.0984738 5.94500229,13.6304187 C4.77903859,13.7324118 3.70749263,13.7624207 3.12781954,13.7710782 C3.12860482,13.747144 3.12629719,13.7232086 3.12095387,13.6998653 L3.12095387,13.6997285 L3.12067959,13.6987707 C2.85298746,12.5951385 2.9397055,11.6855599 3.37822777,10.9951056 Z M5.2682122,11.205871 C5.2682122,9.73618577 6.13347084,8.54049301 7.19710566,8.54049301 C8.26074046,8.54049301 9.12599287,9.73618577 9.12599287,11.205871 C9.12599287,12.6755562 8.26073424,13.871249 7.19710566,13.871249 C6.13347706,13.871249 5.2682122,12.6755562 5.2682122,11.205871 Z M0.574074798,17.0289165 C0.501680488,16.2279364 0.809836805,15.4394851 1.40618429,14.8998744 C1.53804883,14.7975828 2.54911046,14.182098 2.83523709,14.0546238 C3.30103173,14.0520613 4.7377351,14.0313692 6.2778496,13.8813058 C6.55309422,14.0553304 6.8714734,14.1490198 7.19710566,14.1518154 C7.74006524,14.1518154 8.23713758,13.8881908 8.62222839,13.453394 C9.4845079,13.2194674 10.6702557,12.8010153 11.640387,12.1051501 C11.92624,13.2908793 12.7606439,14.1518154 13.7436868,14.1518154 C14.9619873,14.1518154 15.9531479,12.8302904 15.9531479,11.205871 C15.9531479,9.58145162 14.9619873,8.25992658 13.7436868,8.25992658 C12.5253863,8.25992658 11.5342332,9.58145162 11.5342332,11.205871 C11.5341475,11.4056718 11.5494261,11.6051834 11.5799338,11.8026414 C10.7488698,12.4273994 9.72493388,12.8319758 8.89911289,13.082042 C9.23841436,12.515572 9.41406527,11.8661416 9.4065593,11.205871 C9.4065593,10.3720144 9.14421592,9.61961428 8.72521656,9.08317271 C10.4938417,8.52532547 12.1291764,7.6104708 13.5300294,6.39521806 C13.5940029,6.47870198 13.7100892,6.50095524 13.8836995,6.53296684 C14.0350751,6.56091713 14.3896221,6.62626509 14.4392099,6.63934463 C14.6306133,6.6998942 14.814042,6.78323825 14.9855467,6.88758226 C15.3473518,7.10875899 15.6169595,7.41364354 15.744639,7.74606168 C15.86437,8.05758862 15.8734143,8.40329154 15.8665654,8.70064432 L15.8660181,8.72592024 C15.8672236,8.91673128 15.8573429,9.10745121 15.8364259,9.2971162 C15.7862042,9.37286378 15.7757499,9.46823417 15.8083696,9.55306267 C15.8409893,9.63789118 15.9126485,9.70168588 16.0006821,9.72426927 L16.0009557,9.72426927 C16.8200472,9.9335295 17.3944711,10.3445804 17.7080505,10.9461958 C18.3421999,12.1623692 17.7425747,13.7909681 17.7365481,13.8069956 C17.7337195,13.8144466 17.7325427,13.8220654 17.7303846,13.829591 C15.5711345,17.2484762 7.15330195,18.8820506 4.2386234,19.353337 C3.38507602,19.4194064 2.55625725,19.3505383 1.85593891,18.9649996 C1.1408621,18.5647339 0.663351816,17.8435189 0.574074798,17.0289165 L0.574074798,17.0289165 Z M11.8147996,11.205871 C11.8147996,9.73618577 12.6800582,8.54049301 13.7436868,8.54049301 C14.8073154,8.54049301 15.6725802,9.73618577 15.6725802,11.205871 C15.6725802,12.6755562 14.8073154,13.871249 13.7436868,13.871249 C12.6800582,13.871249 11.8147996,12.6755562 11.8147996,11.205871 Z M20.1557408,16.7671204 C20.0873827,17.8897966 18.887442,18.8262931 17.737369,19.1712434 C16.6155138,19.5076358 15.3817392,19.4519467 14.1879621,19.3979057 C13.9547942,19.3873575 13.7232745,19.3768777 13.4940809,19.3693397 C12.0914956,19.3208805 10.6927287,19.1938476 9.304361,18.9888389 C9.15873837,18.9675372 9.0044769,18.9347917 8.84131537,18.900199 C8.69558764,18.8692945 8.54801147,18.838732 8.3998202,18.813879 C11.9184843,17.9599087 16.2289863,16.4813048 17.8563848,14.146504 C17.8644875,14.1518204 17.8728665,14.1567033 17.8814866,14.1611322 C19.4517275,14.8847362 20.2169771,15.7615755 20.1557402,16.7671204 L20.1557408,16.7671204 Z M7.20877961,12.7490019 C6.62771957,12.7490019 6.15665702,12.0738289 6.15665702,11.2409612 C6.15665702,10.4080936 6.62771957,9.73291433 7.20877961,9.73291433 C7.78983964,9.73291433 8.26090216,10.4080874 8.26090216,11.2409612 C8.26090216,12.0738351 7.78984648,12.7490019 7.20877961,12.7490019 Z M12.7032065,11.2409612 C12.7032065,10.4080874 13.1742509,9.73291433 13.7553296,9.73291433 C14.3363971,9.73291433 14.8074522,10.4080874 14.8074522,11.2409612 C14.8074522,12.0738351 14.3363971,12.7490019 13.7553296,12.7490019 C13.1742503,12.7490019 12.7032065,12.0738289 12.7032065,11.2409612 L12.7032065,11.2409612 Z M9.46245366,17.2848227 C9.62149119,17.3166729 9.78236153,17.3385665 9.9441266,17.3503759 C10.0419402,17.3574972 10.139847,17.3610361 10.2378472,17.3609933 C11.7313654,17.3609933 13.2014611,16.5445692 13.886436,15.3064783 C13.9890448,15.1209889 14.0001403,14.932141 13.9171229,14.7882909 C13.8284892,14.634925 13.641078,14.5508814 13.4195592,14.5620453 C13.2722884,14.5696517 13.1244716,14.5899956 12.9815843,14.6097175 C12.8828129,14.6232822 12.7841721,14.6369153 12.6860849,14.646232 C10.9521407,14.8104882 9.11982938,14.7880856 7.08353195,14.5778676 C6.99126714,14.5633108 6.89705401,14.5668002 6.80611879,14.5881422 C6.65723138,14.6327341 6.54221258,14.7514909 6.5024035,14.9017278 C6.46075173,15.064541 6.51336283,15.2500366 6.65035843,15.4241569 C7.44355831,16.4314122 8.41594729,17.07481 9.46245366,17.2848227 Z M6.77420048,14.9713858 C6.78922641,14.9174944 6.83036608,14.8747839 6.8836569,14.8577499 C6.9402624,14.8475778 6.99820328,14.8473 7.05490374,14.8569289 C9.10928116,15.0688573 10.9599461,15.0913283 12.7125238,14.9255608 C12.8144485,14.9159019 12.9170573,14.9017962 13.0198029,14.8876158 C13.1632425,14.8678876 13.2987274,14.8491857 13.4340817,14.8422012 C13.5205198,14.8385007 13.6332726,14.8578183 13.6740972,14.9285772 C13.7120421,14.9942672 13.6819026,15.0967392 13.6409412,15.1707136 C12.9728148,16.377987 11.4257283,17.176803 9.96440207,17.0704937 C9.81432375,17.0595669 9.66507473,17.0392748 9.51752706,17.0097357 C8.27922472,16.7612306 7.39478586,15.9159675 6.87078261,15.250584 C6.83269458,15.202153 6.74693434,15.0779688 6.77420048,14.9713858 Z"></path>
            </g>
        </g>
    </g>
</svg>